<svg width="640" height="640" viewBox="0 0 640 640" fill="none" xmlns="http://www.w3.org/2000/svg">
<path d="M6.01353 334.518C-2.00453 326.5 -2.0045 313.5 6.01356 305.482L305.482 6.01353C313.5 -2.00453 326.5 -2.0045 334.518 6.01356L633.986 305.482C642.005 313.5 642.004 326.5 633.986 334.518L334.518 633.986C326.5 642.005 313.5 642.004 305.482 633.986L6.01353 334.518Z" fill="#374151"/>
<path d="M87.895 108.244C87.895 96.9045 97.0872 87.7123 108.426 87.7123H531.939C543.278 87.7123 552.47 96.9046 552.47 108.244V531.756C552.47 543.095 543.278 552.288 531.939 552.288H108.426C97.0872 552.288 87.895 543.095 87.895 531.756V108.244Z" fill="#374151"/>
<path d="M116.931 137.28C116.931 125.94 126.123 116.748 137.462 116.748H502.903C514.242 116.748 523.434 125.941 523.434 137.28V502.72C523.434 514.059 514.242 523.252 502.903 523.252H137.462C126.123 523.252 116.931 514.059 116.931 502.72V137.28Z" fill="#F9FAFB"/>
<path d="M116.931 137.28C116.931 125.94 126.123 116.748 137.462 116.748H502.903C514.242 116.748 523.434 125.941 523.434 137.28V502.72C523.434 514.059 514.242 523.252 502.903 523.252H137.462C126.123 523.252 116.931 514.059 116.931 502.72V137.28Z" fill="#F9FAFB"/>
<path d="M47.2446 334.518C39.2265 326.5 39.2266 313.5 47.2446 305.482L305.65 47.0766C313.668 39.0585 326.668 39.0585 334.686 47.0766L593.091 305.482C601.109 313.5 601.109 326.5 593.091 334.518L334.686 592.923C326.668 600.941 313.668 600.941 305.65 592.923L47.2446 334.518Z" fill="#F9FAFB"/>
<path d="M47.2446 334.518C39.2265 326.5 39.2266 313.5 47.2446 305.482L305.65 47.0766C313.668 39.0585 326.668 39.0585 334.686 47.0766L593.091 305.482C601.109 313.5 601.109 326.5 593.091 334.518L334.686 592.923C326.668 600.941 313.668 600.941 305.65 592.923L47.2446 334.518Z" fill="#F9FAFB"/>
<path d="M129.126 334.518C121.108 326.5 121.108 313.5 129.126 305.482L305.405 129.203C313.423 121.185 326.423 121.185 334.441 129.203L510.721 305.482C518.739 313.5 518.739 326.5 510.721 334.518L334.441 510.797C326.423 518.815 313.423 518.815 305.405 510.797L129.126 334.518Z" fill="#111827"/>
<path d="M175.003 195.352C175.003 184.012 184.195 174.82 195.534 174.82H444.831C456.17 174.82 465.362 184.012 465.362 195.352V444.648C465.362 455.988 456.17 465.18 444.831 465.18H195.534C184.195 465.18 175.003 455.988 175.003 444.648V195.352Z" fill="#111827"/>
<path d="M429.018 305.363C437.036 313.381 437.036 326.381 429.018 334.399L421.608 341.809C413.589 349.827 400.59 349.827 392.572 341.809L297.751 246.989C289.733 238.971 289.733 225.971 297.751 217.953L305.161 210.542C313.179 202.524 326.179 202.524 334.197 210.542L429.018 305.363Z" fill="#F9FAFB"/>
<path d="M385.313 349.068C393.331 357.086 393.331 370.086 385.313 378.104L377.902 385.514C369.884 393.532 356.884 393.532 348.866 385.514L254.046 290.694C246.028 282.676 246.028 269.676 254.046 261.658L261.456 254.248C269.474 246.23 282.474 246.23 290.492 254.248L385.313 349.068Z" fill="#D1D5DB"/>
<path d="M341.607 392.773C349.625 400.791 349.625 413.791 341.607 421.809L334.197 429.22C326.179 437.238 313.179 437.238 305.161 429.22L210.341 334.399C202.323 326.381 202.323 313.381 210.341 305.363L217.751 297.953C225.769 289.935 238.769 289.935 246.787 297.953L341.607 392.773Z" fill="#9CA3AF"/>
</svg>
