<svg width="1024" height="1024" viewBox="0 0 1024 1024" fill="none" xmlns="http://www.w3.org/2000/svg">
<mask id="mask0_4362_2" style="mask-type:luminance" maskUnits="userSpaceOnUse" x="168" y="64" width="792" height="810">
<path d="M168.946 64H959.414V873.727H168.946V64Z" fill="white"/>
</mask>
<g mask="url(#mask0_4362_2)">
<mask id="mask1_4362_2" style="mask-type:luminance" maskUnits="userSpaceOnUse" x="170" y="64" width="788" height="807">
<path d="M563.835 64.6095C346.617 64.6095 170.538 245.128 170.538 467.822C170.538 565.149 204.196 654.416 260.179 724.079C415.219 537.78 615.521 297.862 675.761 225.721C676.241 225.151 706.179 189.543 728.925 179.476C769.238 161.603 802.705 172.004 823.782 176.802C825.7 177.254 827.541 177.628 829.267 177.962C830.552 178.198 831.741 178.395 832.911 178.532C833.122 178.571 833.352 178.611 833.544 178.611C833.717 178.611 833.87 178.65 834.043 178.65C836.632 178.906 838.876 178.866 840.736 178.414C832.835 196.523 832.835 195.402 802.858 228.061C704.242 335.495 792.732 464.577 656.525 568.924C520.357 673.272 418.537 662.497 288.582 755.676C359.524 826.99 456.645 870.994 563.835 870.994C781.052 870.994 957.132 690.476 957.132 467.782V64.6095H563.835Z" fill="white"/>
</mask>
<g mask="url(#mask1_4362_2)">
<mask id="mask2_4362_2" style="mask-type:luminance" maskUnits="userSpaceOnUse" x="168" y="60" width="792" height="816">
<path d="M959.414 60.3626H168.946V875.792H959.414V60.3626Z" fill="white"/>
</mask>
<g mask="url(#mask2_4362_2)">
<mask id="mask3_4362_2" style="mask-type:luminance" maskUnits="userSpaceOnUse" x="169" y="64" width="789" height="808">
<path d="M169.789 64H957.285V871.191H169.789V64Z" fill="white"/>
</mask>
<g mask="url(#mask3_4362_2)">
<mask id="mask4_4362_2" style="mask-type:luminance" maskUnits="userSpaceOnUse" x="170" y="64" width="788" height="807">
<path d="M563.834 64.6096C346.617 64.6096 170.537 245.128 170.537 467.822C170.537 565.149 204.196 654.416 260.178 724.079C415.219 537.78 615.521 297.862 675.761 225.721C676.241 225.151 706.178 189.543 728.924 179.476C769.238 161.603 802.705 172.004 823.782 176.802C825.7 177.254 827.541 177.628 829.267 177.962C830.552 178.198 831.741 178.395 832.911 178.532C833.122 178.571 833.352 178.611 833.544 178.611C833.717 178.611 833.87 178.65 834.043 178.65C836.632 178.906 838.876 178.866 840.736 178.414C832.834 196.523 832.834 195.402 802.858 228.061C704.241 335.495 792.732 464.577 656.525 568.924C520.356 673.272 418.537 662.497 288.582 755.676C359.524 826.99 456.645 870.994 563.834 870.994C781.052 870.994 957.131 690.476 957.131 467.782V64.6096H563.834Z" fill="white"/>
</mask>
<g mask="url(#mask4_4362_2)">
<path d="M4318.49 -160.709H-724.21V1187.47H4318.49V-160.709Z" fill="black"/>
</g>
</g>
</g>
</g>
</g>
<mask id="mask5_4362_2" style="mask-type:luminance" maskUnits="userSpaceOnUse" x="64" y="720" width="228" height="242">
<path d="M64 720.54H291.689V961.263H64V720.54Z" fill="white"/>
</mask>
<g mask="url(#mask5_4362_2)">
<mask id="mask6_4362_2" style="mask-type:luminance" maskUnits="userSpaceOnUse" x="64" y="724" width="225" height="237">
<path d="M273.354 739.572C273.278 739.494 273.201 739.376 273.124 739.317C271.551 737.528 269.96 735.719 268.425 733.91C265.625 730.666 262.864 727.402 260.179 724.079C168.735 833.931 93.0748 925.144 71.0769 952.376C67.9124 956.309 65.8794 958.865 65.0356 960.005C64.7863 960.339 64.6328 960.556 64.5945 960.634C64.5945 960.634 74.1646 948.542 226.232 806.955C247.847 786.821 268.521 770.088 288.582 755.715C283.346 750.465 278.302 745.078 273.354 739.572Z" fill="white"/>
</mask>
<g mask="url(#mask6_4362_2)">
<mask id="mask7_4362_2" style="mask-type:luminance" maskUnits="userSpaceOnUse" x="60" y="719" width="232" height="243">
<path d="M291.689 719.753H60.9312V961.362H291.689V719.753Z" fill="white"/>
</mask>
<g mask="url(#mask7_4362_2)">
<mask id="mask8_4362_2" style="mask-type:luminance" maskUnits="userSpaceOnUse" x="63" y="723" width="226" height="239">
<path d="M63.9995 723.961H288.678V961.263H63.9995V723.961Z" fill="white"/>
</mask>
<g mask="url(#mask8_4362_2)">
<mask id="mask9_4362_2" style="mask-type:luminance" maskUnits="userSpaceOnUse" x="64" y="724" width="225" height="237">
<path d="M273.354 739.573C273.277 739.494 273.2 739.376 273.124 739.317C271.551 737.528 269.959 735.719 268.425 733.91C265.625 730.666 262.863 727.402 260.178 724.079C168.734 833.931 93.0743 925.144 71.0764 952.376C67.9119 956.309 65.879 958.865 65.0351 960.005C64.7858 960.339 64.6323 960.556 64.594 960.634C64.594 960.634 74.1641 948.542 226.232 806.955C247.846 786.821 268.521 770.088 288.582 755.715C283.346 750.465 278.302 745.078 273.354 739.573Z" fill="white"/>
</mask>
<g mask="url(#mask9_4362_2)">
<path d="M4318.49 -160.709H-724.21V1187.47H4318.49V-160.709Z" fill="black"/>
</g>
</g>
</g>
</g>
</g>
<mask id="mask10_4362_2" style="mask-type:luminance" maskUnits="userSpaceOnUse" x="267" y="342" width="369" height="398">
<path d="M267.14 342.239H635.371V739.887H267.14V342.239Z" fill="white"/>
</mask>
<g mask="url(#mask10_4362_2)">
<mask id="mask11_4362_2" style="mask-type:luminance" maskUnits="userSpaceOnUse" x="268" y="343" width="366" height="397">
<path d="M346.655 661.022C444.467 557.737 541.031 453.311 633.319 344.736L632.552 343.969C511.304 465.895 388.772 600.384 268.387 733.909C269.922 735.718 271.513 737.527 273.086 739.317C301.125 709.214 326.652 681.903 346.617 660.983" fill="white"/>
</mask>
<g mask="url(#mask11_4362_2)">
<mask id="mask12_4362_2" style="mask-type:luminance" maskUnits="userSpaceOnUse" x="267" y="342" width="369" height="398">
<path d="M635.371 342.239H267.141V739.887H635.371V342.239Z" fill="white"/>
</mask>
<g mask="url(#mask12_4362_2)">
<mask id="mask13_4362_2" style="mask-type:luminance" maskUnits="userSpaceOnUse" x="267" y="343" width="367" height="397">
<path d="M267.505 343.832H633.568V739.651H267.505V343.832Z" fill="white"/>
</mask>
<g mask="url(#mask13_4362_2)">
<mask id="mask14_4362_2" style="mask-type:luminance" maskUnits="userSpaceOnUse" x="268" y="343" width="366" height="397">
<path d="M346.655 661.022C444.466 557.737 541.031 453.311 633.319 344.736L632.552 343.97C511.304 465.895 388.771 600.384 268.387 733.91C269.921 735.718 271.513 737.527 273.086 739.317C301.125 709.214 326.652 681.903 346.617 660.983" fill="white"/>
</mask>
<g mask="url(#mask14_4362_2)">
<path d="M4318.49 -160.709H-724.21V1187.47H4318.49V-160.709Z" fill="black"/>
</g>
</g>
</g>
</g>
</g>
</svg>
